<svg width="22" height="22" viewBox="0 0 22 22" fill="none" xmlns="http://www.w3.org/2000/svg">
  <path d="M21 8V6H20V4H19V3H18V2H16V1H14V0H8V1H6V2H4V3H3V4H2V6H1V8H0V15H1V16H2V18H3V19H4V20H6V21H8V22H14V21H16V20H18V19H19V18H20V16H21V14H22V8H21ZM20 9V13H17V9H20ZM15 3H16V4H18V6H19V7H16V4H15V3ZM13 17V19H12V20H10V19H9V17H8V15H14V17H13ZM15 9V13H7V9H15ZM8 5H9V3H10V2H12V3H13V5H14V7H8V5ZM3 6H4V4H6V3H7V4H6V7H3V6ZM2 13V9H5V13H2ZM4 18V16H3V15H6V18H7V19H6V18H4ZM18 16V18H16V19H15V18H16V15H19V16H18Z" />
  </svg>
  