<svg width="582" height="59" viewBox="0 0 582 59" fill="none" xmlns="http://www.w3.org/2000/svg">
<path d="M11.6364 0.81818H23.2727V12.4545H11.6364V0.81818ZM0 0.81818H11.6364V12.4545H0V0.81818ZM0 12.4545H11.6364V24.0909H0V12.4545ZM0 24.0909H11.6364V35.7273H0V24.0909ZM0 35.7273H11.6364V47.3636H0V35.7273ZM0 47.3636H11.6364V59H0V47.3636ZM11.6364 47.3636H23.2727V59H11.6364V47.3636ZM267.375 47.3636H279.011V59H267.375V47.3636ZM267.375 35.7273H279.011V47.3636H267.375V35.7273ZM267.375 24.0909H279.011V35.7273H267.375V24.0909ZM267.375 12.4545H279.011V24.0909H267.375V12.4545ZM279.011 0.81818H290.648V12.4545H279.011V0.81818ZM290.648 12.4545H302.284V24.0909H290.648V12.4545ZM290.648 24.0909H302.284V35.7273H290.648V24.0909ZM290.648 35.7273H302.284V47.3636H290.648V35.7273ZM290.648 47.3636H302.284V59H290.648V47.3636ZM279.011 24.0909H290.648V35.7273H279.011V24.0909ZM453.375 47.3636H465.011V59H453.375V47.3636ZM453.375 35.7273H465.011V47.3636H453.375V35.7273ZM453.375 24.0909H465.011V35.7273H453.375V24.0909ZM453.375 12.4545H465.011V24.0909H453.375V12.4545ZM465.011 0.81818H476.648V12.4545H465.011V0.81818ZM476.648 12.4545H488.284V24.0909H476.648V12.4545ZM476.648 24.0909H488.284V35.7273H476.648V24.0909ZM476.648 35.7273H488.284V47.3636H476.648V35.7273ZM476.648 47.3636H488.284V59H476.648V47.3636ZM453.375 0.81818H465.011V12.4545H453.375V0.81818Z" fill="#FF0000"/>
<path d="M34.875 47.3636H46.5114V59H34.875V47.3636ZM34.875 35.7273H46.5114V47.3636H34.875V35.7273ZM34.875 24.0909H46.5114V35.7273H34.875V24.0909ZM34.875 12.4545H46.5114V24.0909H34.875V12.4545ZM34.875 0.81818H46.5114V12.4545H34.875V0.81818ZM46.5114 24.0909H58.1477V35.7273H46.5114V24.0909ZM58.1477 0.81818H69.7841V12.4545H58.1477V0.81818ZM58.1477 12.4545H69.7841V24.0909H58.1477V12.4545ZM58.1477 24.0909H69.7841V35.7273H58.1477V24.0909ZM58.1477 35.7273H69.7841V47.3636H58.1477V35.7273ZM58.1477 47.3636H69.7841V59H58.1477V47.3636ZM406.875 47.3636H418.511V59H406.875V47.3636ZM406.875 35.7273H418.511V47.3636H406.875V35.7273ZM406.875 24.0909H418.511V35.7273H406.875V24.0909ZM406.875 12.4545H418.511V24.0909H406.875V12.4545ZM418.511 0.81818H430.148V12.4545H418.511V0.81818ZM430.148 12.4545H441.784V24.0909H430.148V12.4545ZM430.148 24.0909H441.784V35.7273H430.148V24.0909ZM430.148 35.7273H441.784V47.3636H430.148V35.7273ZM430.148 47.3636H441.784V59H430.148V47.3636ZM406.875 0.81818H418.511V12.4545H406.875V0.81818Z" fill="#75E045"/>
<path d="M81.375 47.3636H93.0114V59H81.375V47.3636ZM81.375 35.7273H93.0114V47.3636H81.375V35.7273ZM81.375 24.0909H93.0114V35.7273H81.375V24.0909ZM81.375 12.4545H93.0114V24.0909H81.375V12.4545ZM93.0114 0.81818H104.648V12.4545H93.0114V0.81818ZM104.648 12.4545H116.284V24.0909H104.648V12.4545ZM104.648 24.0909H116.284V35.7273H104.648V24.0909ZM104.648 35.7273H116.284V47.3636H104.648V35.7273ZM104.648 47.3636H116.284V59H104.648V47.3636ZM93.0114 24.0909H104.648V35.7273H93.0114V24.0909ZM197.648 0.81818H209.284V12.4545H197.648V0.81818ZM186.011 0.81818H197.648V12.4545H186.011V0.81818ZM174.375 12.4545H186.011V24.0909H174.375V12.4545ZM174.375 24.0909H186.011V35.7273H174.375V24.0909ZM186.011 24.0909H197.648V35.7273H186.011V24.0909ZM197.648 24.0909H209.284V35.7273H197.648V24.0909ZM197.648 35.7273H209.284V47.3636H197.648V35.7273ZM197.648 47.3636H209.284V59H197.648V47.3636ZM186.011 47.3636H197.648V59H186.011V47.3636ZM174.375 47.3636H186.011V59H174.375V47.3636ZM174.375 0.81818H186.011V12.4545H174.375V0.81818ZM383.625 0.81818H395.261V12.4545H383.625V0.81818ZM383.625 12.4545H395.261V24.0909H383.625V12.4545ZM383.625 24.0909H395.261V35.7273H383.625V24.0909ZM383.625 35.7273H395.261V47.3636H383.625V35.7273ZM383.625 47.3636H395.261V59H383.625V47.3636ZM499.875 0.81818H511.511V12.4545H499.875V0.81818ZM499.875 12.4545H511.511V24.0909H499.875V12.4545ZM499.875 24.0909H511.511V35.7273H499.875V24.0909ZM499.875 35.7273H511.511V47.3636H499.875V35.7273ZM499.875 47.3636H511.511V59H499.875V47.3636ZM511.511 0.81818H523.148V12.4545H511.511V0.81818ZM511.511 47.3636H523.148V59H511.511V47.3636ZM511.511 24.0909H523.148V35.7273H511.511V24.0909ZM523.148 0.81818H534.784V12.4545H523.148V0.81818ZM523.148 47.3636H534.784V59H523.148V47.3636Z" fill="#FFE90D"/>
<path d="M127.875 0.81818H139.511V12.4545H127.875V0.81818ZM139.511 0.81818H151.148V12.4545H139.511V0.81818ZM151.148 0.81818H162.784V12.4545H151.148V0.81818ZM151.148 12.4545H162.784V24.0909H151.148V12.4545ZM151.148 24.0909H162.784V35.7273H151.148V24.0909ZM151.148 35.7273H162.784V47.3636H151.148V35.7273ZM151.148 47.3636H162.784V59H151.148V47.3636ZM139.511 47.3636H151.148V59H139.511V47.3636ZM127.875 47.3636H139.511V59H127.875V47.3636ZM127.875 35.7273H139.511V47.3636H127.875V35.7273ZM127.875 24.0909H139.511V35.7273H127.875V24.0909ZM127.875 12.4545H139.511V24.0909H127.875V12.4545Z" fill="#FF7423"/>
<path d="M220.875 0.81818H232.511V12.4545H220.875V0.81818ZM220.875 12.4545H232.511V24.0909H220.875V12.4545ZM220.875 24.0909H232.511V35.7273H220.875V24.0909ZM220.875 35.7273H232.511V47.3636H220.875V35.7273ZM220.875 47.3636H232.511V59H220.875V47.3636ZM232.511 0.81818H244.148V12.4545H232.511V0.81818ZM244.148 0.81818H255.784V12.4545H244.148V0.81818ZM244.148 12.4545H255.784V24.0909H244.148V12.4545ZM244.148 24.0909H255.784V35.7273H244.148V24.0909ZM232.511 24.0909H244.148V35.7273H232.511V24.0909Z" fill="#0001EE"/>
<path d="M313.875 0.81818H325.511V12.4545H313.875V0.81818ZM325.511 0.81818H337.148V12.4545H325.511V0.81818ZM337.148 0.81818H348.784V12.4545H337.148V0.81818ZM325.511 12.4545H337.148V24.0909H325.511V12.4545ZM325.511 24.0909H337.148V35.7273H325.511V24.0909ZM325.511 35.7273H337.148V47.3636H325.511V35.7273ZM325.511 47.3636H337.148V59H325.511V47.3636ZM546.375 47.3636H558.011V59H546.375V47.3636ZM546.375 35.7273H558.011V47.3636H546.375V35.7273ZM546.375 24.0909H558.011V35.7273H546.375V24.0909ZM546.375 12.4545H558.011V24.0909H546.375V12.4545ZM558.011 0.81818H569.648V12.4545H558.011V0.81818ZM569.648 12.4545H581.284V24.0909H569.648V12.4545ZM569.648 24.0909H581.284V35.7273H569.648V24.0909ZM569.648 35.7273H581.284V47.3636H569.648V35.7273ZM569.648 47.3636H581.284V59H569.648V47.3636ZM546.375 0.81818H558.011V12.4545H546.375V0.81818Z" fill="#1BDB6A"/>
<path d="M360.375 47.3636H372.011V59H360.375V47.3636ZM360.375 12.4545H372.011V24.0909H360.375V12.4545Z" fill="white"/>
</svg>
